<mxfile host="app.diagrams.net" modified="2024-04-13T10:02:11.360Z" agent="Mozilla/5.0 (Windows NT 10.0; Win64; x64) AppleWebKit/537.36 (KHTML, like Gecko) Chrome/124.0.0.0 Safari/537.36 OPR/110.0.0.0 (Edition developer)" version="23.1.1" etag="ZK8im6fWK06qBakzp7YP" type="github">
  <diagram name="Page-1" id="BeDjWwsWuPyfUUYE6-uk">
    <mxGraphModel>
      <root>
        <mxCell id="0" />
        <mxCell id="1" parent="0" />
      </root>
    </mxGraphModel>
  </diagram>
</mxfile>
